<svg xmlns="http://www.w3.org/2000/svg" viewBox="0 0 24 24">
<g fill="#E8397E">
<rect x="11.25" y="1.2" width="1.5" height="6.6" rx=".75"></rect>
<rect x="11.25" y="1.2" width="1.5" height="6.6" rx=".75" transform="rotate(90 12 12)"></rect>
<rect x="11.25" y="1.2" width="1.5" height="6.6" rx=".75" transform="rotate(180 12 12)"></rect>
<rect x="11.25" y="1.2" width="1.5" height="6.6" rx=".75" transform="rotate(270 12 12)"></rect>
<rect x="11.25" y="3.4" width="1.5" height="4.2" rx=".75" transform="rotate(45 12 12)"></rect>
<rect x="11.25" y="3.4" width="1.5" height="4.2" rx=".75" transform="rotate(135 12 12)"></rect>
<rect x="11.25" y="3.4" width="1.5" height="4.2" rx=".75" transform="rotate(225 12 12)"></rect>
<rect x="11.25" y="3.4" width="1.5" height="4.2" rx=".75" transform="rotate(315 12 12)"></rect>
</g>
<circle cx="12" cy="12" r="1.7" fill="#C4145C"></circle>
</svg>